<svg width="40" height="40" viewBox="0 0 40 40" fill="none" xmlns="http://www.w3.org/2000/svg">
<path d="M0 20C0 8.9543 8.9543 0 20 0C31.0457 0 40 8.9543 40 20C40 31.0457 31.0457 40 20 40C8.9543 40 0 31.0457 0 20Z" fill="#303030"/>
<path d="M26.4887 19.0255C26.3719 18.9704 26.2533 18.9175 26.133 18.8667C25.9237 15.0741 23.816 12.9028 20.277 12.8806C20.2609 12.8805 20.245 12.8805 20.2289 12.8805C18.1121 12.8805 16.3516 13.7689 15.268 15.3856L17.2144 16.6983C18.0239 15.4908 19.2943 15.2333 20.2299 15.2333C20.2407 15.2333 20.2515 15.2333 20.2622 15.2334C21.4275 15.2408 22.3068 15.5739 22.876 16.2235C23.2901 16.6965 23.5671 17.35 23.7043 18.1749C22.6711 18.0022 21.5538 17.9491 20.3593 18.0165C16.9946 18.207 14.8314 20.1366 14.9767 22.8177C15.0504 24.1777 15.7395 25.3477 16.9169 26.112C17.9124 26.7581 19.1945 27.0741 20.527 27.0025C22.2868 26.9077 23.6673 26.2475 24.6304 25.0405C25.3618 24.1238 25.8244 22.9359 26.0287 21.4391C26.8673 21.9367 27.4888 22.5916 27.8321 23.3788C28.4158 24.717 28.4498 26.916 26.6249 28.7088C25.026 30.2793 23.1041 30.9588 20.1995 30.9798C16.9775 30.9563 14.5408 29.9403 12.9565 27.96C11.4729 26.1057 10.7062 23.4274 10.6776 19.9993C10.7062 16.5713 11.4729 13.8929 12.9565 12.0386C14.5408 10.0584 16.9775 9.0424 20.1995 9.01886C23.4448 9.04258 25.924 10.0634 27.5689 12.0532C28.3755 13.029 28.9836 14.2561 29.3845 15.6869L31.6654 15.0885C31.1794 13.3274 30.4148 11.8099 29.3743 10.5513C27.2655 8.00028 24.1813 6.69312 20.2074 6.66602H20.1915C16.2257 6.69303 13.176 8.00515 11.1273 10.5659C9.30415 12.8447 8.36373 16.0154 8.33213 19.99L8.33203 19.9993L8.33213 20.0087C8.36373 23.9832 9.30415 27.1541 11.1273 29.4328C13.176 31.9935 16.2257 33.3057 20.1915 33.3327H20.2074C23.7332 33.3087 26.2185 32.401 28.2659 30.3898C30.9445 27.7585 30.8639 24.4603 29.981 22.4356C29.3476 20.9837 28.14 19.8044 26.4887 19.0255ZM20.4011 24.6531C18.9263 24.7348 17.3943 24.0839 17.3187 22.6899C17.2627 21.6563 18.0668 20.503 20.4916 20.3656C20.7693 20.3498 21.0417 20.3421 21.3094 20.3421C22.1902 20.3421 23.0141 20.4263 23.7632 20.5873C23.4838 24.0181 21.8449 24.5752 20.4011 24.6531Z" fill="white"/>
</svg>
