<svg width="40" height="41" viewBox="0 0 40 41" fill="none" xmlns="http://www.w3.org/2000/svg">
<path d="M20 40.0177C8.97157 40.0177 0 31.0434 0 20.0117C0 8.98005 8.97157 0.00585938 20 0.00585938C31.0285 0.00585938 40 8.98005 40 20.0117C40 31.0434 31.0285 40.0177 20 40.0177ZM20 1.36394C9.72101 1.36394 1.35768 9.72971 1.35768 20.0117C1.35768 30.2938 9.72101 38.6596 20 38.6596C30.279 38.6596 38.6423 30.2938 38.6423 20.0117C38.6423 9.72971 30.279 1.36394 20 1.36394Z" fill="black"/>
<path d="M17.2661 16.9923V15.9078C16.8898 15.8479 16.5098 15.8154 16.1288 15.8106C14.3356 15.8063 12.5878 16.3751 11.1406 17.4341C9.69333 18.493 8.6223 19.9867 8.08372 21.6972C7.54514 23.4077 7.56719 25.2455 8.14665 26.9426C8.72611 28.6397 9.83266 30.1073 11.3049 31.1312C10.1979 29.9454 9.45766 28.4645 9.17358 26.8673C8.8895 25.2702 9.07369 23.6249 9.70393 22.1301C10.3342 20.6353 11.3835 19.3548 12.7254 18.4431C14.0672 17.5314 15.6442 17.0276 17.2661 16.9923Z" fill="#65D2E9"/>
<path d="M17.4747 29.3246C18.4652 29.3234 19.4171 28.9402 20.1321 28.2548C20.8471 27.5695 21.2703 26.6347 21.3134 25.6451V7.30359H24.6651C24.5968 6.92043 24.5639 6.53178 24.5669 6.14258H19.9839V24.4655C19.947 25.4597 19.5265 26.401 18.8106 27.0918C18.0947 27.7827 17.139 28.1694 16.1441 28.1708C15.5265 28.1654 14.9189 28.0138 14.3711 27.7283C14.7261 28.2201 15.1922 28.6211 15.7316 28.8985C16.2709 29.1759 16.8682 29.3219 17.4747 29.3246Z" fill="#65D2E9"/>
<path d="M30.9587 13.5031V12.4838C29.7254 12.4837 28.5196 12.1198 27.4922 11.4375C28.3925 12.4849 29.6093 13.2107 30.9587 13.5052V13.5031Z" fill="#65D2E9"/>
<path d="M27.4721 11.4624C26.4604 10.3098 25.9025 8.82854 25.9027 7.29492H24.6797C24.8378 8.14265 25.1668 8.94933 25.6467 9.6658C26.1266 10.3823 26.7473 10.9935 27.4711 11.4624H27.4721Z" fill="#E6436D"/>
<path d="M16.1322 20.4909C15.2741 20.4957 14.4423 20.787 13.7688 21.3187C13.0953 21.8504 12.6188 22.5919 12.4149 23.4254C12.211 24.2589 12.2915 25.1366 12.6436 25.9191C12.9957 26.7016 13.5991 27.3441 14.3581 27.7444C13.943 27.171 13.6945 26.4941 13.64 25.7884C13.5855 25.0827 13.7271 24.3756 14.0492 23.7453C14.3713 23.1151 14.8613 22.5861 15.4652 22.2168C16.069 21.8476 16.7632 21.6524 17.471 21.6529C17.8566 21.657 18.2396 21.7165 18.6083 21.8297V17.166C18.2318 17.1097 17.8517 17.0804 17.471 17.0781H17.2643V20.6242C16.8953 20.5254 16.514 20.4805 16.1322 20.4909Z" fill="#E6436D"/>
<path d="M30.9364 13.5078V17.0539C28.6528 17.0489 26.4287 16.3256 24.5792 14.9862V24.3043C24.5746 26.5373 23.6842 28.6773 22.1036 30.2546C20.523 31.8319 18.3812 32.7178 16.1482 32.7178C14.4211 32.7212 12.7355 32.1883 11.3242 31.1929C12.475 32.4308 13.972 33.2934 15.6201 33.6684C17.2682 34.0434 18.991 33.9134 20.5641 33.2953C22.1373 32.6772 23.4878 31.5997 24.4398 30.2031C25.3918 28.8065 25.9012 27.1555 25.9015 25.4653V16.1762C27.7574 17.5067 29.9845 18.2202 32.268 18.216V13.6494C31.8204 13.6485 31.3741 13.601 30.9364 13.5078Z" fill="#E6436D"/>
<path d="M24.585 24.3266V15.0085C26.4418 16.34 28.6706 17.0532 30.9555 17.0472V13.5011C29.6065 13.2164 28.3866 12.5009 27.4797 11.4624C26.756 10.9935 26.1352 10.3823 25.6553 9.6658C25.1754 8.94933 24.8464 8.14265 24.6883 7.29492H21.3314V25.6478C21.2988 26.4467 21.0181 27.2155 20.5284 27.8474C20.0388 28.4794 19.3644 28.9432 18.5991 29.1743C17.8337 29.4054 17.0154 29.3925 16.2578 29.1371C15.5002 28.8818 14.8409 28.3969 14.3715 27.7497C13.6123 27.3497 13.0086 26.7075 12.6563 25.9251C12.3039 25.1426 12.2232 24.2649 12.427 23.4313C12.6308 22.5977 13.1074 21.8562 13.781 21.3246C14.4545 20.793 15.2865 20.5017 16.1446 20.4972C16.5303 20.5004 16.9134 20.5599 17.2818 20.674V17.1268C15.6511 17.1546 14.0636 17.6562 12.713 18.5705C11.3624 19.4847 10.3069 20.7722 9.67533 22.276C9.04374 23.7797 8.86329 25.4347 9.15599 27.0392C9.44869 28.6437 10.2019 30.1284 11.3238 31.3123C12.7486 32.2736 14.4355 32.7715 16.1539 32.738C18.3866 32.738 20.5281 31.8524 22.1086 30.2755C23.6892 28.6987 24.5798 26.5592 24.585 24.3266Z" fill="black"/>
</svg>
